<svg width="20" height="16" viewBox="0 0 20 16" fill="none" xmlns="http://www.w3.org/2000/svg">
<path d="M19.9999 1.93678C19.2612 2.2558 18.4741 2.46726 17.6536 2.56993C18.4977 2.07367 19.142 1.29385 19.445 0.353904C18.6579 0.815931 17.7889 1.14228 16.8628 1.32441C16.1155 0.540916 15.0504 0.0556641 13.8884 0.0556641C11.634 0.0556641 9.81906 1.85732 9.81906 4.06601C9.81906 4.38381 9.84638 4.68938 9.91341 4.98029C6.5281 4.81773 3.53258 3.22019 1.52026 0.786597C1.16894 1.38674 0.962865 2.07367 0.962865 2.81316C0.962865 4.20169 1.68909 5.43254 2.7716 6.14514C2.11738 6.13292 1.47556 5.9459 0.93183 5.65133C0.93183 5.66355 0.93183 5.67944 0.93183 5.69533C0.93183 7.64367 2.34331 9.26199 4.19425 9.63479C3.86279 9.72402 3.50154 9.7668 3.12664 9.7668C2.86594 9.7668 2.60276 9.75213 2.35573 9.69835C2.88333 11.2861 4.38046 12.4534 6.16064 12.4913C4.77523 13.5584 3.01615 14.2012 1.11183 14.2012C0.777895 14.2012 0.457613 14.1866 0.137329 14.1462C1.9411 15.2916 4.0788 15.9455 6.38409 15.9455C13.8773 15.9455 17.9739 9.83403 17.9739 4.5366C17.9739 4.35937 17.9676 4.18824 17.959 4.01835C18.7671 3.45364 19.4461 2.74838 19.9999 1.93678Z" fill="#ABA5AB"/>
</svg>
